<svg xmlns="http://www.w3.org/2000/svg" viewBox="0 0 470 200" width="100%" font-family="Charter, Georgia, serif">
<line x1="54.0" y1="148.7" x2="416.0" y2="148.7" stroke="#e4e4e4" stroke-width="0.5"/>
<text x="50.0" y="151.2" font-size="7.5" text-anchor="end" fill="#444">0.9445</text>
<line x1="54.0" y1="110.2" x2="416.0" y2="110.2" stroke="#e4e4e4" stroke-width="0.5"/>
<text x="50.0" y="112.7" font-size="7.5" text-anchor="end" fill="#444">0.9455</text>
<line x1="54.0" y1="71.7" x2="416.0" y2="71.7" stroke="#e4e4e4" stroke-width="0.5"/>
<text x="50.0" y="74.2" font-size="7.5" text-anchor="end" fill="#444">0.9465</text>
<line x1="54.0" y1="33.2" x2="416.0" y2="33.2" stroke="#e4e4e4" stroke-width="0.5"/>
<text x="50.0" y="35.7" font-size="7.5" text-anchor="end" fill="#444">0.9475</text>
<line x1="54.0" y1="14.0" x2="54.0" y2="168.0" stroke="#000" stroke-width="0.8"/>
<line x1="54.0" y1="168.0" x2="416.0" y2="168.0" stroke="#000" stroke-width="0.8"/>
<text x="421.0" y="139.7" font-size="7.5" fill="#b04a3a">3.20</text>
<text x="421.0" y="108.9" font-size="7.5" fill="#b04a3a">3.25</text>
<text x="421.0" y="78.1" font-size="7.5" fill="#b04a3a">3.30</text>
<text x="421.0" y="47.3" font-size="7.5" fill="#b04a3a">3.35</text>
<line x1="416.0" y1="14.0" x2="416.0" y2="168.0" stroke="#b04a3a" stroke-width="0.8"/>
<polyline points="54.0,106.4 147.7,91.0 228.5,75.6 416.0,79.4" fill="none" stroke="#111" stroke-width="1.5"/>
<polyline points="54.0,75.6 147.7,112.6 228.5,118.7 416.0,118.7" fill="none" stroke="#b04a3a" stroke-width="1.2" stroke-dasharray="3 2"/>
<circle cx="54.0" cy="106.4" r="2.4" fill="#111"/>
<circle cx="147.7" cy="91.0" r="2.4" fill="#111"/>
<circle cx="228.5" cy="75.6" r="2.4" fill="#111"/>
<circle cx="416.0" cy="79.4" r="2.4" fill="#111"/>
<circle cx="54.0" cy="75.6" r="2" fill="#b04a3a"/>
<circle cx="147.7" cy="112.6" r="2" fill="#b04a3a"/>
<circle cx="228.5" cy="118.7" r="2" fill="#b04a3a"/>
<circle cx="416.0" cy="118.7" r="2" fill="#b04a3a"/>
<text x="54.0" y="179.0" font-size="7.5" text-anchor="middle" fill="#444">200k</text>
<text x="147.7" y="179.0" font-size="7.5" text-anchor="middle" fill="#444">1M</text>
<text x="228.5" y="179.0" font-size="7.5" text-anchor="middle" fill="#444">4M</text>
<text x="416.0" y="179.0" font-size="7.5" text-anchor="middle" fill="#444">100M</text>
<text x="235.0" y="196.0" font-size="8" text-anchor="middle">population (log scale, 500&#215; range)</text>
<text x="11" y="91.0" font-size="8" text-anchor="middle" transform="rotate(-90,11,91.0)">poverty $8.30</text>
<text x="461.0" y="91.0" font-size="8" text-anchor="middle" fill="#b04a3a" transform="rotate(90,461.0,91.0)">median $/day</text>
</svg>